# xmcd database file
#
# Track frame offsets:
# 150
# 17625
# 37500
# 53850
# 73950
# 89250
# 103800
# 126675
# 144750
# 157950
# 177750
# 199500
# 219000
# 243675
#
# Disc length: 3327 seconds
#
# Revision: 0
# Processed by: cddbd v1.5PL3 Copyright (c) Steve Scherf et al.
# Submitted via: CD-Runner 2004.04
#
DISCID=ba0cfd0e
DTITLE=John Dillon - Callin' Me Home
DYEAR=2002
DGENRE=General Country
TTITLE0=Double Yellow Line
TTITLE1=Greener Fields
TTITLE2=Callin' Me-Home
TTITLE3=Out on A Limb
TTITLE4=Caroline
TTITLE5=Taos Cowgirl
TTITLE6=Songs Live On
TTITLE7=Building in My Mind
TTITLE8=Let Go
TTITLE9=New Mexico Moon
TTITLE10=A Time For Movin' On
TTITLE11=Just For Today
TTITLE12=Fast Movin' Train
TTITLE13=Train Movin' Fast
EXTD=
EXTT0=
EXTT1=with Robin Greenstein
EXTT2=with Tish Hinojosa
EXTT3=
EXTT4=with Michael Hearne
EXTT5=with Michael Hearne
EXTT6=with Ina May Wool
EXTT7=
EXTT8=
EXTT9=with Tish Hinojosa
EXTT10=
EXTT11=
EXTT12=with Peter Rowan
EXTT13=
PLAYORDER=
